<svg xmlns="http://www.w3.org/2000/svg" viewBox="0 0 512.1 508.58"><defs><style>.cls-1{fill:#fff;}</style></defs><title>search</title><g id="Layer_2" data-name="Layer 2"><g id="Layer_1-2" data-name="Layer 1"><path class="cls-1" d="M321.31,44.88A145.81,145.81,0,1,1,175.49,190.69,145.81,145.81,0,0,1,321.31,44.88h0m0-44.88C216,0,130.61,85.45,130.64,190.79a190.73,190.73,0,0,0,116.42,175.6C344.1,407.39,456,362,497,264.94S492.59,56,395.55,15A189.54,189.54,0,0,0,321.31,0Z"/><path class="cls-1" d="M8.11,468.73,153.28,323.56c9.91-9.91,25.16-10.88,33.89-2.15s7.76,24-2.15,33.89L39.85,500.47c-9.91,9.91-25.16,10.88-33.89,2.15S-1.8,478.64,8.11,468.73Z"/></g></g></svg>